<?xml version="1.0" standalone="no"?><!DOCTYPE svg PUBLIC "-//W3C//DTD SVG 1.1//EN" "http://www.w3.org/Graphics/SVG/1.1/DTD/svg11.dtd"><svg t="1581060461567" class="icon" viewBox="0 0 1024 1024" version="1.1" xmlns="http://www.w3.org/2000/svg" p-id="16888" width="200" height="200" xmlns:xlink="http://www.w3.org/1999/xlink"><defs><style type="text/css"></style></defs><path d="M502.986225 333.802367c-1.287682-5.150729-5.150729-9.013775-10.301457-12.876821-5.150729-3.863046-11.589139-5.150729-20.602915-5.150729-9.013775 0-15.452186 1.287682-20.602914 5.150729-5.150729 3.863046-7.726093 7.726093-10.301457 12.876821L349.752049 605.503301c-3.863046 12.876822-3.863046 20.602914 2.575364 25.753643 5.150729 5.150729 12.876822 7.726093 21.890597 7.726093s16.739868-2.575364 21.890596-6.438411c5.150729-3.863046 9.013775-10.301457 11.58914-18.02755l19.315232-51.507286H518.438411l21.890596 54.08265c2.575364 6.438411 6.438411 11.589139 10.301458 15.452186 5.150729 3.863046 11.589139 6.438411 20.602914 6.438411 9.013775 0 16.739868-2.575364 21.890596-7.726093 5.150729-5.150729 6.438411-14.164504 2.575365-25.753643l-92.713115-271.700934z m-64.384108 177.700137l34.767418-112.028347 34.767419 112.028347h-69.534837zM661.371129 314.487135c-19.315232 0-29.616689 10.301457-29.616689 29.616689v267.837888c0 9.013775 2.575364 16.739868 6.438411 21.890596 3.863046 5.150729 11.589139 7.726093 21.890596 7.726093 10.301457 0 18.02755-2.575364 23.178279-7.726093 5.150729-5.150729 6.438411-11.589139 6.438411-21.890596V342.816142c0-10.301457-2.575364-18.02755-7.726093-21.890596-2.575364-3.863046-10.301457-6.438411-20.602915-6.438411" p-id="16889" fill="#ffffff"></path><path d="M953.674978 372.432832c-7.726093-112.028347-86.274704-207.316826-124.905169-245.947291-1.287682-1.287682-1.287682-2.575364-1.287682-2.575364l-6.438411-6.438411-11.589139-11.589139c-2.575364-2.575364-5.150729-3.863046-7.726093-5.150729-74.685565-57.945697-302.605305-197.015369-552.415643 5.150729-16.739868 12.876822-29.616689 28.329007-39.918146 45.068875-11.589139 18.02755-21.890597 38.630465-30.904372 60.521061-16.739868 43.781193-19.315232 94.000797-6.438411 140.357354l7.726093 27.041325L71.612704 578.461976c-1.287682 2.575364-2.575364 5.150729-2.575364 7.726093-5.150729 32.192054 14.164504 61.808743 45.068875 70.822518l34.767418 9.013775 2.575365 148.083447v3.863047c3.863046 18.02755 19.315232 50.219604 59.233379 57.945697 33.479736 7.726093 100.439208 28.329007 101.72689 29.616689 2.575364 1.287682 16.739868 6.438411 18.02755 21.890597 2.575364 33.479736 1.287682 70.822518 1.287682 70.822518 0 12.876822 10.301457 24.465961 23.178279 24.465961h1.287682c12.876822 0 23.178279-10.301457 24.465961-23.178279 0-1.287682 1.287682-39.918147-1.287683-75.973247-2.575364-41.205829-34.767418-60.521061-51.507286-64.384107-2.575364-1.287682-69.534836-23.178279-105.589936-30.904372-15.452186-3.863046-20.602914-15.452186-21.890596-19.315232L196.517873 647.996812c0-10.301457-7.726093-19.315232-18.02755-23.178279l-51.507286-14.164503c-6.438411-1.287682-11.589139-7.726093-11.589139-14.164504l109.452982-202.166098c2.575364-5.150729 3.863046-11.589139 2.575365-18.02755l-10.301458-36.0551c-10.301457-36.0551-7.726093-74.685565 5.150729-110.740665 7.726093-19.315232 16.739868-37.342782 25.753643-52.794968 7.726093-11.589139 18.02755-23.178279 29.61669-33.479736 244.659609-199.590733 462.277892-33.479736 507.346767 5.150728 27.041325 27.041325 112.028347 119.75444 119.75444 226.632059 7.726093 109.452983-12.876822 218.905966-54.08265 285.865437l-3.863047 3.863047-77.260929 109.452983c-18.02755 23.178279-47.64424 64.384108-47.644239 90.13775v135.206626c0 12.876822 10.301457 24.465961 24.46596 24.465961s24.465961-10.301457 24.465961-24.465961V864.327413c1.287682-9.013775 18.02755-37.342782 38.630465-61.808743l61.808743-88.850068 3.863047-3.863047c59.233379-73.397883 88.850068-203.45378 78.548611-337.372723" p-id="16890" fill="#ffffff"></path></svg>