<?xml version="1.0" encoding="UTF-8"?>
<svg width="1129px" height="143px" viewBox="0 0 1129 143" version="1.1" xmlns="http://www.w3.org/2000/svg" xmlns:xlink="http://www.w3.org/1999/xlink">
    <!-- Generator: Sketch 61.2 (89653) - https://sketch.com -->
    <title>YIFANDOU</title>
    <desc>Created with Sketch.</desc>
    <g id="页面-1" stroke="none" stroke-width="1" fill="none" fill-rule="evenodd">
        <g id="第四版" transform="translate(-396.000000, -376.000000)" fill="#FFFFFF" fill-rule="nonzero">
            <g id="落地页">
                <path d="M499.515625,514.183594 L499.515625,509.105469 C492.354167,508.910156 487.471354,507.722005 484.867188,505.541016 C482.263021,503.360026 480.960938,498.460938 480.960938,490.84375 L480.960938,490.84375 L480.960938,454.027344 L519.144531,391.820312 C520.772135,389.28125 522.790365,387.393229 525.199219,386.15625 C527.08724,385.375 529.626302,384.691406 532.816406,384.105469 L532.816406,384.105469 L532.816406,379.027344 L488.871094,379.027344 L488.871094,384.105469 C495.316406,384.561198 499.483073,385.179688 501.371094,385.960938 C504.170573,387.132812 505.570312,389.476562 505.570312,392.992188 C505.570312,395.270833 504.43099,398.786458 502.152344,403.539062 C500.654948,406.664062 499.222656,409.300781 497.855469,411.449219 L497.855469,411.449219 L476.371094,446.605469 L474.710938,446.605469 L449.710938,398.558594 C448.408854,395.759115 447.578776,393.822266 447.220703,392.748047 C446.86263,391.673828 446.683594,390.68099 446.683594,389.769531 C446.683594,387.686198 447.660156,386.31901 449.613281,385.667969 C451.566406,385.016927 455.99349,384.496094 462.894531,384.105469 L462.894531,384.105469 L462.894531,379.027344 L396,379.027344 L396,384.105469 C398.408854,384.170573 400.785156,384.75651 403.128906,385.863281 C406.644531,387.621094 409.606771,390.68099 412.015625,395.042969 L412.015625,395.042969 L448.539062,461.449219 L448.539062,490.84375 C448.539062,498.135417 447.318359,502.953125 444.876953,505.296875 C442.435547,507.640625 437.503906,508.910156 430.082031,509.105469 L430.082031,509.105469 L430.082031,514.183594 L499.515625,514.183594 Z M613.048437,514.183594 L613.048437,509.105469 C606.798437,509.105469 602.110937,508.161458 598.985937,506.273438 C595.860937,504.385417 594.298437,500.641927 594.298437,495.042969 L594.298437,495.042969 L594.298437,398.265625 C594.298437,392.276042 596.251562,388.272135 600.157812,386.253906 C602.501562,385.082031 606.798437,384.365885 613.048437,384.105469 L613.048437,384.105469 L613.048437,379.027344 L543.126562,379.027344 L543.126562,384.105469 C549.116146,384.365885 553.282812,385.114583 555.626562,386.351562 C559.467708,388.369792 561.388281,392.341146 561.388281,398.265625 L561.388281,398.265625 L561.388281,495.042969 C561.388281,500.967448 559.370052,504.971354 555.333594,507.054688 C552.859635,508.291667 548.790625,508.97526 543.126562,509.105469 L543.126562,509.105469 L543.126562,514.183594 L613.048437,514.183594 Z M695.33125,514.183594 L695.33125,509.105469 C687.909375,509.235677 682.391797,508.470703 678.778516,506.810547 C675.165234,505.150391 673.358594,501.227865 673.358594,495.042969 L673.358594,495.042969 L673.358594,448.460938 C684.100781,448.460938 691.538932,450.934896 695.673047,455.882812 C699.807161,460.830729 702.557812,468.708333 703.925,479.515625 L703.925,479.515625 L709.003125,479.515625 L709.003125,411.9375 L703.925,411.9375 C701.971875,422.354167 699.091016,429.938802 695.282422,434.691406 C691.473828,439.44401 684.165885,441.722656 673.358594,441.527344 L673.358594,441.527344 L673.358594,395.238281 C673.358594,391.592448 674.15612,389.102214 675.751172,387.767578 C677.346224,386.432943 681.073437,385.765625 686.932812,385.765625 C702.688021,385.765625 713.495312,388.255859 719.354687,393.236328 C725.214062,398.216797 729.380729,406.924479 731.854687,419.359375 L731.854687,419.359375 L736.7375,419.359375 L736.7375,379.027344 L623.358594,379.027344 L623.358594,384.105469 C629.348177,384.496094 633.44974,385.309896 635.663281,386.546875 C639.309115,388.565104 641.132031,392.471354 641.132031,398.265625 L641.132031,398.265625 L641.132031,495.042969 C641.132031,500.772135 639.276562,504.678385 635.565625,506.761719 C633.156771,508.128906 629.08776,508.910156 623.358594,509.105469 L623.358594,509.105469 L623.358594,514.183594 L695.33125,514.183594 Z M774.391406,514.183594 L774.391406,509.105469 C769.834115,509.040365 766.416146,508.64974 764.1375,507.933594 C760.296354,506.63151 758.375781,504.548177 758.375781,501.683594 C758.375781,499.339844 759.254688,495.596354 761.0125,490.453125 C761.858854,488.044271 763.746875,482.86849 766.676563,474.925781 L766.676563,474.925781 L811.598438,474.925781 L816.676563,487.035156 C817.783333,489.704427 818.66224,491.983073 819.313281,493.871094 C820.354948,497.061198 820.875781,499.4375 820.875781,501 C820.875781,504.450521 819.850391,506.598958 817.799609,507.445312 C815.748828,508.291667 811.468229,508.845052 804.957813,509.105469 L804.957813,509.105469 L804.957813,514.183594 L869.703906,514.183594 L869.703906,509.105469 C865.146615,509.235677 861.63099,507.591797 859.157031,504.173828 C856.683073,500.755859 852.939583,493.154948 847.926563,481.371094 L847.926563,481.371094 L803.297656,376.292969 L797.73125,376.292969 L753.297656,485.765625 C749.782031,494.424479 747.080208,500.023438 745.192188,502.5625 C742.2625,506.598958 738.388802,508.779948 733.571094,509.105469 L733.571094,509.105469 L733.571094,514.183594 L774.391406,514.183594 Z M808.571094,467.015625 L769.703906,467.015625 L787.770313,420.726562 L789.430469,420.726562 L808.571094,467.015625 Z M1001.30313,517.894531 L1001.30313,400.121094 C1001.30313,394.001302 1002.36107,390.0625 1004.47695,388.304688 C1006.59284,386.546875 1010.77578,385.147135 1017.02578,384.105469 L1017.02578,384.105469 L1017.02578,379.027344 L973.959375,379.027344 L973.959375,384.105469 C981.38125,384.691406 986.329167,386.432943 988.803125,389.330078 C991.277083,392.227214 992.514063,397.061198 992.514063,403.832031 L992.514063,403.832031 L992.514063,463.304688 L991.5375,463.304688 L922.7875,379.027344 L880.404688,379.027344 L880.404688,384.105469 C882.878646,384.43099 884.831771,385.195964 886.264063,386.400391 C887.696354,387.604818 891.472396,391.625 897.592188,398.460938 L897.592188,398.460938 L897.592188,493.1875 C897.592188,498.330729 896.517969,502.220703 894.369531,504.857422 C892.221094,507.494141 887.435938,508.910156 880.014063,509.105469 L880.014063,509.105469 L880.014063,514.183594 L925.326563,514.183594 L925.326563,509.105469 C917.058333,508.779948 911.589583,506.566406 908.920313,502.464844 C907.227604,499.925781 906.38125,495.596354 906.38125,489.476562 L906.38125,489.476562 L906.38125,410.960938 L907.748438,410.960938 L995.736719,517.894531 L1001.30313,517.894531 Z M1144.94297,514.183594 C1167.79453,514.183594 1185.89349,507.119792 1199.23984,492.992188 C1211.0888,480.427083 1217.01328,465.095052 1217.01328,446.996094 C1217.01328,426.813802 1211.12135,410.733073 1199.3375,398.753906 C1186.38177,385.602865 1167.56667,379.027344 1142.89219,379.027344 L1142.89219,379.027344 L1081.75938,379.027344 L1081.75938,384.105469 C1087.03281,384.561198 1090.74375,385.375 1092.89219,386.546875 C1096.60313,388.565104 1098.45859,392.145833 1098.45859,397.289062 L1098.45859,397.289062 L1098.45859,495.921875 C1098.45859,501.260417 1096.50547,504.938802 1092.59922,506.957031 C1090.38568,508.063802 1086.7724,508.779948 1081.75938,509.105469 L1081.75938,509.105469 L1081.75938,514.183594 L1144.94297,514.183594 Z M1141.62266,507.347656 C1137.26068,507.347656 1134.41237,506.436198 1133.07773,504.613281 C1131.7431,502.790365 1130.97813,499.828125 1130.78281,495.726562 L1130.78281,495.726562 L1130.78281,397.289062 C1130.78281,393.1875 1131.30365,390.420573 1132.34531,388.988281 C1133.90781,386.77474 1137.29323,385.667969 1142.50156,385.667969 C1158.25677,385.667969 1169.45469,393.838542 1176.09531,410.179688 C1180.19688,420.335938 1182.24766,432.477865 1182.24766,446.605469 C1182.24766,470.36849 1178.43906,486.432943 1170.82188,494.798828 C1163.20469,503.164714 1153.47161,507.347656 1141.62266,507.347656 Z M1303.39766,518.1875 C1323.51484,518.1875 1340.27917,511.677083 1353.69062,498.65625 C1367.4276,485.309896 1374.29609,468.122396 1374.29609,447.09375 C1374.29609,426.065104 1367.4276,408.877604 1353.69062,395.53125 C1340.34427,382.510417 1323.57995,376 1303.39766,376 C1282.43411,376 1265.31172,382.835938 1252.03047,396.507812 C1238.87943,409.984375 1232.30391,427.204427 1232.30391,448.167969 C1232.30391,467.178385 1238.58646,483.389323 1251.15156,496.800781 C1264.62812,511.058594 1282.04349,518.1875 1303.39766,518.1875 Z M1303.39766,511.449219 C1288.29349,511.449219 1277.97448,502.5625 1272.44062,484.789062 C1269.44583,475.21875 1267.94844,462.653646 1267.94844,447.09375 C1267.94844,431.794271 1269.41328,419.359375 1272.34297,409.789062 C1277.94193,391.755208 1288.29349,382.738281 1303.39766,382.738281 C1314.27005,382.738281 1322.88008,388.141927 1329.22773,398.949219 C1335.57539,409.75651 1338.74922,425.804688 1338.74922,447.09375 C1338.74922,462.588542 1337.25182,475.153646 1334.25703,484.789062 C1328.65807,502.5625 1318.37161,511.449219 1303.39766,511.449219 Z M1457.36016,518.1875 C1474.93828,518.1875 1487.82891,513.565104 1496.03203,504.320312 C1504.23516,495.075521 1508.33672,481.957031 1508.33672,464.964844 L1508.33672,464.964844 L1508.33672,401 C1508.33672,394.554688 1509.36211,390.436849 1511.41289,388.646484 C1513.46367,386.85612 1517.67917,385.342448 1524.05937,384.105469 L1524.05937,384.105469 L1524.05937,379.027344 L1480.11406,379.027344 L1480.11406,384.105469 C1487.79635,384.691406 1492.95586,386.335286 1495.59258,389.037109 C1498.2293,391.738932 1499.54766,396.670573 1499.54766,403.832031 L1499.54766,403.832031 L1499.54766,464.964844 C1499.54766,476.227865 1498.05026,484.984375 1495.05547,491.234375 C1489.65182,502.627604 1479.26771,508.324219 1463.90312,508.324219 C1451.53333,508.324219 1443.16745,503.18099 1438.80547,492.894531 C1436.39661,487.360677 1435.19219,479.515625 1435.19219,469.359375 L1435.19219,469.359375 L1435.19219,402.464844 C1435.19219,394.782552 1436.49427,389.867188 1439.09844,387.71875 C1441.7026,385.570312 1446.87839,384.365885 1454.62578,384.105469 L1454.62578,384.105469 L1454.62578,379.027344 L1387.04766,379.027344 L1387.04766,384.105469 C1394.0138,384.886719 1398.48971,386.253906 1400.47539,388.207031 C1402.46107,390.160156 1403.45391,394.91276 1403.45391,402.464844 L1403.45391,402.464844 L1403.45391,469.359375 C1403.45391,480.882812 1405.7,490.290365 1410.19219,497.582031 C1418.65573,511.31901 1434.37839,518.1875 1457.36016,518.1875 Z" id="YIFANDOU"></path>
            </g>
        </g>
    </g>
</svg>